<svg id="Capa_1" enable-background="new 0 0 511.952 511.952" height="512" viewBox="0 0 511.952 511.952" width="512" xmlns="http://www.w3.org/2000/svg"><g><g><path d="m255.976 471.487c-119.025 0-215.513-96.488-215.513-215.512 0-119.024 96.488-215.512 215.512-215.512 119.024 0 215.512 96.488 215.512 215.512.001 119.024-96.487 215.512-215.511 215.512z" fill="#71ddf9"/><path d="m471.486 255.975c0 59.51-24.12 113.39-63.12 152.39s-92.88 63.12-152.39 63.12c-5.04 0-10.05-.17-15-.52 53.53-3.67 101.69-26.9 137.39-62.6 39-39 63.12-92.88 63.12-152.39s-24.12-113.39-63.12-152.39c-35.7-35.7-83.86-58.93-137.39-62.6 4.95-.35 9.96-.52 15-.52 59.51 0 113.39 24.12 152.39 63.12s63.12 92.88 63.12 152.39z" fill="#23c7f7"/><path d="m255.976 411.475c-85.881 0-155.5-69.62-155.5-155.5 0-85.88 69.62-155.5 155.5-155.5 85.88 0 155.5 69.62 155.5 155.5 0 85.88-69.62 155.5-155.5 155.5z" fill="#23c7f7"/><path d="m70.463 255.975c0 16.569-13.431 30-30 30-16.569 0-30-13.431-30-30 0-16.569 13.431-30 30-30 16.569 0 30 13.431 30 30z" fill="#ccf49f"/><path d="m70.466 255.975c0 16.57-13.43 30-30 30-5.47 0-10.59-1.46-15-4.03 8.97-5.17 15-14.86 15-25.97 0-8.28-3.36-15.78-8.79-21.21-1.85-1.85-3.93-3.46-6.21-4.76 4.41-2.57 9.53-4.03 15-4.03 8.29 0 15.79 3.36 21.21 8.79 5.43 5.43 8.79 12.93 8.79 21.21z" fill="#b3e59f"/><path d="m259.44 204.673 3.683 17.009c2.942 13.589 13.556 24.203 27.145 27.145l17.009 3.683c3.726.807 3.726 6.123 0 6.929l-17.009 3.683c-13.589 2.942-24.203 13.556-27.145 27.145l-3.683 17.009c-.807 3.726-6.123 3.726-6.929 0l-3.683-17.009c-2.942-13.589-13.556-24.203-27.145-27.145l-17.009-3.683c-3.726-.807-3.726-6.123 0-6.929l17.009-3.683c13.589-2.942 24.203-13.556 27.145-27.145l3.683-17.009c.807-3.727 6.123-3.727 6.929 0z" fill="#fff"/><path d="m501.488 255.975c0 16.569-13.431 30-30 30-16.569 0-30-13.431-30-30 0-16.569 13.431-30 30-30 16.569 0 30 13.431 30 30z" fill="#c3aff0"/><path d="m255.976 70.462c-16.569 0-30-13.431-30-30 0-16.569 13.431-30 30-30 16.569 0 30 13.431 30 30 0 16.569-13.432 30-30 30z" fill="#ffe07d"/><path d="m501.486 255.975c0 16.57-13.43 30-30 30-5.47 0-10.59-1.46-15-4.03 8.97-5.17 15-14.86 15-25.97 0-8.28-3.36-15.78-8.79-21.21-1.85-1.85-3.93-3.46-6.21-4.76 4.41-2.57 9.53-4.03 15-4.03 8.29 0 15.79 3.36 21.21 8.79 5.43 5.43 8.79 12.93 8.79 21.21z" fill="#a69ded"/><path d="m285.976 40.465c0 8.29-3.36 15.79-8.79 21.21-5.43 5.43-12.93 8.79-21.21 8.79-5.46 0-10.59-1.46-15-4.03 2.28-1.31 4.36-2.91 6.21-4.76 5.43-5.42 8.79-12.92 8.79-21.21s-3.36-15.79-8.79-21.21c-1.85-1.85-3.93-3.45-6.21-4.76 4.41-2.57 9.54-4.03 15-4.03 8.28 0 15.78 3.36 21.21 8.79 5.43 5.42 8.79 12.92 8.79 21.21z" fill="#ffd064"/><path d="m255.976 501.487c-16.569 0-30-13.431-30-30 0-16.569 13.431-30 30-30 16.569 0 30 13.431 30 30 0 16.569-13.432 30-30 30z" fill="#fc8d94"/><path d="m285.976 471.485c0 8.29-3.36 15.79-8.79 21.21-5.43 5.43-12.93 8.79-21.21 8.79-5.46 0-10.59-1.46-15-4.03 2.28-1.31 4.36-2.91 6.21-4.76 5.43-5.42 8.79-12.92 8.79-21.21s-3.36-15.79-8.79-21.21c-1.85-1.85-3.93-3.45-6.21-4.76 4.41-2.57 9.54-4.03 15-4.03 8.28 0 15.78 3.36 21.21 8.79 5.43 5.42 8.79 12.92 8.79 21.21z" fill="#fa6f7c"/></g><g><path d="m203.087 266.767 17.009 3.683c10.688 2.314 19.088 10.715 21.402 21.402l3.683 17.01c1.11 5.127 5.55 8.707 10.796 8.707s9.685-3.581 10.794-8.708l3.683-17.009c2.314-10.688 10.715-19.088 21.402-21.402l17.009-3.683c5.127-1.109 8.708-5.549 8.708-10.795s-3.581-9.686-8.708-10.795l-17.009-3.683c-10.688-2.314-19.088-10.715-21.402-21.402l-3.683-17.009c-1.109-5.127-5.548-8.708-10.794-8.708 0 0 0 0-.001 0-5.245 0-9.685 3.58-10.795 8.708l-3.683 17.009c-2.314 10.688-10.715 19.088-21.402 21.402l-17.009 3.683c-5.127 1.109-8.708 5.549-8.708 10.795s3.581 9.686 8.708 10.795zm52.889-42.694c3.734 15.771 16.129 28.165 31.899 31.899-15.771 3.734-28.165 16.129-31.899 31.899-3.735-15.771-16.129-28.164-31.899-31.899 15.77-3.734 28.164-16.129 31.899-31.899z"/><path d="m471.523 370.098c-4.043-6.796-8.357-13.727-12.892-20.751 8.161-17.712 13.965-36.538 17.254-56.141 18.612-2.185 33.103-18.044 33.103-37.234s-14.491-35.049-33.104-37.234c-3.284-19.595-9.089-38.41-17.249-56.122 29.15-45.208 72.701-124.005 43.701-153.005-24.803-24.803-85.601 3.067-132.235 30.813-6.796 4.044-13.729 8.358-20.754 12.893-17.715-8.162-36.536-13.972-56.139-17.258-2.186-18.611-18.045-33.1-37.233-33.1-19.19 0-35.05 14.492-37.234 33.105-19.596 3.284-38.417 9.09-56.135 17.255-7.026-4.536-13.959-8.851-20.757-12.896-46.633-27.745-107.43-55.613-132.235-30.812-28.877 28.878 14.018 106.961 43.699 153.002-8.158 17.709-13.967 36.526-17.254 56.127-18.609 2.188-33.096 18.046-33.096 37.233 0 19.188 14.489 35.046 33.099 37.233 3.274 19.474 9.108 38.308 17.301 56.074-4.551 7.047-8.879 14.001-12.935 20.819-27.748 46.633-55.617 107.431-30.813 132.234 6.733 6.733 16.146 9.554 27.206 9.554 36.602 0 91.172-30.922 125.872-53.304 17.78 8.196 36.617 14.027 56.049 17.296 2.184 18.613 18.044 33.105 37.234 33.105 19.189 0 35.048-14.49 37.234-33.102 19.589-3.283 38.404-9.092 56.118-17.254.005.003.008.006.013.009 34.622 22.328 66.104 38.484 91.043 46.721 13.311 4.396 24.866 6.593 34.616 6.593 11.782 0 20.927-3.208 27.338-9.618 24.803-24.803-3.066-85.6-30.815-132.235zm-98.021-204.092c19.937 26.002 30.474 57.111 30.474 89.966 0 5.662-.331 11.247-.953 16.745-24.091-30.052-50.491-59.69-77.296-86.496-18.312-18.312-37.949-36.432-58.133-53.76 8.2-6.813 16.459-13.475 24.73-19.937 21.181 5.371 41.082 15.384 58.065 29.468 3.187 2.645 7.916 2.202 10.561-.985 2.644-3.188 2.202-7.917-.985-10.562-15.715-13.032-33.699-22.9-52.879-29.232 14.563-10.955 29.059-21.233 43.205-30.597 57.154 29.261 99.218 84.279 110.591 149.395-15.526 4.588-26.891 18.969-26.891 35.962 0 16.997 11.37 31.379 26.9 35.965-2.565 14.686-6.709 28.859-12.236 42.345-10.152-14.953-21.227-30.221-32.995-45.497 2.176-10.603 3.318-21.577 3.318-32.813 0-36.184-11.608-70.449-33.569-99.093-2.52-3.286-7.228-3.907-10.516-1.389-3.289 2.52-3.911 7.228-1.391 10.515zm-265.526 89.966c0-69.059 47.547-127.217 111.623-143.471 8.28 6.47 16.549 13.14 24.759 19.96-20.184 17.328-39.821 35.448-58.133 53.76-26.806 26.806-53.206 56.443-77.297 86.496-.621-5.498-.952-11.083-.952-16.745zm131.255-147.047c5.498-.622 11.083-.953 16.745-.953 5.612 0 11.199.327 16.737.959-5.599 4.489-11.182 9.058-16.737 13.695-5.558-4.639-11.143-9.211-16.745-13.701zm-42.399 87.903c18.615-18.615 38.609-37.024 59.144-54.577 20.535 17.552 40.529 35.962 59.144 54.577 29.49 29.489 58.473 62.433 84.328 95.521-16.254 64.076-74.412 111.623-143.471 111.623s-127.217-47.547-143.471-111.623c25.853-33.088 54.836-66.031 84.326-95.521zm297.156 59.144c0 12.406-10.094 22.5-22.5 22.5s-22.5-10.094-22.5-22.5 10.094-22.5 22.5-22.5 22.5 10.094 22.5 22.5zm-116.216-202.657c28.846-17.163 54.657-29.17 74.644-34.721 19.3-5.359 32.894-4.798 39.314 1.624 14.556 14.555-1.534 63.882-41.008 126.873-9.881-17.616-22.223-33.948-36.863-48.624-14.77-14.805-31.23-27.277-49.001-37.244 4.349-2.731 8.661-5.378 12.914-7.908zm-121.796-35.356c12.406 0 22.5 10.094 22.5 22.5s-10.094 22.5-22.5 22.5c-12.407 0-22.5-10.094-22.5-22.5s10.093-22.5 22.5-22.5zm-35.962 33.11c4.589 15.526 18.969 26.891 35.962 26.891s31.374-11.365 35.962-26.891c14.701 2.567 28.888 6.692 42.377 12.208-14.975 10.165-30.266 21.258-45.564 33.044-10.729-2.206-21.709-3.348-32.775-3.348-11.236 0-22.211 1.143-32.813 3.318-15.281-11.772-30.556-22.852-45.515-33.007 13.49-5.521 27.673-9.648 42.366-12.215zm-199.793-30.851c6.421-6.424 20.017-6.985 39.315-1.624 19.987 5.551 45.798 17.558 74.645 34.721 4.255 2.531 8.568 5.179 12.919 7.911-17.466 9.797-33.672 22.012-48.252 36.489-14.966 14.86-27.569 31.446-37.621 49.369-39.507-63.046-55.593-112.278-41.006-126.866zm-2.258 235.754c0-12.406 10.093-22.5 22.5-22.5s22.5 10.094 22.5 22.5-10.093 22.5-22.5 22.5-22.5-10.094-22.5-22.5zm33.103 35.964c15.529-4.586 26.898-18.968 26.898-35.964 0-16.995-11.367-31.376-26.895-35.963 11.37-65.118 53.492-120.121 110.615-149.38 14.132 9.356 28.613 19.624 43.161 30.566-64.908 21.497-111.869 82.752-111.869 154.777 0 11.237 1.143 22.211 3.319 32.814-11.789 15.303-22.885 30.6-33.052 45.58-5.541-13.613-9.632-27.825-12.177-42.43zm-30.845 199.79c-6.422-6.421-6.983-20.016-1.624-39.314 5.551-19.986 17.558-45.798 34.721-74.644 2.543-4.275 5.204-8.608 7.95-12.981 7.52 13.428 16.454 26.121 26.716 37.865 2.735 3.129 7.476 3.43 10.583.713 3.119-2.726 3.438-7.464.712-10.582-11.362-13.003-20.984-27.249-28.718-42.411 9.375-14.166 19.666-28.683 30.637-43.268 21.497 64.908 82.752 111.869 154.777 111.869s133.28-46.961 154.777-111.869c10.938 14.542 21.202 29.017 30.554 43.143-29.306 57.133-84.408 99.272-149.369 110.63-4.588-15.526-18.969-26.891-35.962-26.891-16.995 0-31.377 11.368-35.964 26.896-35.4-6.174-68.649-21.489-96.503-44.521-3.192-2.639-7.92-2.191-10.559 1.001-2.64 3.192-2.192 7.92 1 10.56 10.417 8.614 21.542 16.214 33.22 22.751-63.024 39.507-112.386 55.62-126.948 41.053zm235.755 2.259c-12.407 0-22.5-10.094-22.5-22.5s10.093-22.5 22.5-22.5c12.406 0 22.5 10.094 22.5 22.5s-10.094 22.5-22.5 22.5zm235.754-2.259c-14.534 14.54-63.925-1.551-126.882-41.009 17.437-9.779 33.617-21.968 48.173-36.405 14.999-14.877 27.634-31.492 37.707-49.455 2.73 4.349 5.376 8.659 7.906 12.911 17.163 28.846 29.17 54.657 34.721 74.644 5.358 19.298 4.796 32.892-1.625 39.314z"/></g></g></svg>